<svg width="190" height="202" viewBox="0 0 190 202" fill="none" xmlns="http://www.w3.org/2000/svg">
<path fill-rule="evenodd" clip-rule="evenodd" d="M165.021 81.7822C170.012 105.552 163.28 131.293 144.824 149.749C115.769 178.803 68.6625 178.803 39.6079 149.749C10.5534 120.694 10.5534 73.5876 39.6079 44.533C55.7708 28.3701 77.5203 21.1986 98.6407 23.0184C116.552 25.4051 121.309 37.624 119.855 52.4424C99.5925 39.8896 72.6469 42.405 55.0634 59.9885C34.5446 80.5072 34.5446 113.775 55.0633 134.293C75.5821 154.812 108.85 154.812 129.368 134.293C133.106 130.556 136.162 126.396 138.538 121.967C140.515 118.522 142.274 114.514 144.101 110.352C148.89 99.4405 154.146 87.4658 165.021 81.7822Z" fill="#00AEFF"/>
<path fill-rule="evenodd" clip-rule="evenodd" d="M57.5038 103.997C55.1444 92.7601 58.3268 80.5925 67.0512 71.8682C80.7855 58.1339 103.053 58.1339 116.787 71.8682C130.522 85.6025 130.522 107.87 116.787 121.604C109.147 129.245 98.866 132.635 88.8822 131.775C80.4154 130.646 78.1667 124.87 78.8543 117.866C88.4323 123.799 101.17 122.61 109.482 114.299C119.181 104.599 119.181 88.8734 109.482 79.1741C99.7822 69.4747 84.0564 69.4747 74.3571 79.1741C72.5904 80.9407 71.1455 82.9073 70.0224 85.001C69.0879 86.6294 68.2564 88.5238 67.3929 90.4912C65.129 95.6493 62.6445 101.31 57.5038 103.997Z" fill="white"/>
</svg>
