<svg width="553" height="202" viewBox="0 0 553 202" fill="none" xmlns="http://www.w3.org/2000/svg">
<g clip-path="url(#clip0_2_61)">
<path fill-rule="evenodd" clip-rule="evenodd" d="M165.021 81.7822C170.012 105.552 163.28 131.293 144.824 149.749C115.769 178.803 68.6625 178.803 39.6079 149.749C10.5534 120.694 10.5534 73.5876 39.6079 44.533C55.7708 28.3701 77.5203 21.1986 98.6407 23.0184C116.552 25.4051 121.309 37.624 119.855 52.4424C99.5925 39.8896 72.6469 42.405 55.0634 59.9885C34.5446 80.5072 34.5446 113.775 55.0633 134.293C75.5821 154.812 108.85 154.812 129.368 134.293C133.106 130.556 136.162 126.396 138.538 121.967C140.515 118.522 142.274 114.514 144.101 110.352C148.89 99.4405 154.146 87.4658 165.021 81.7822Z" fill="#00AEFF"/>
<path fill-rule="evenodd" clip-rule="evenodd" d="M57.5038 103.997C55.1444 92.7601 58.3268 80.5925 67.0512 71.8682C80.7855 58.1339 103.053 58.1339 116.787 71.8682C130.522 85.6025 130.522 107.87 116.787 121.604C109.147 129.245 98.866 132.635 88.8822 131.775C80.4154 130.646 78.1667 124.87 78.8543 117.866C88.4323 123.799 101.17 122.61 109.482 114.299C119.181 104.599 119.181 88.8734 109.482 79.1741C99.7822 69.4747 84.0564 69.4747 74.3571 79.1741C72.5904 80.9407 71.1455 82.9073 70.0224 85.001C69.0879 86.6294 68.2564 88.5238 67.3929 90.4912C65.129 95.6493 62.6445 101.31 57.5038 103.997Z" fill="white"/>
<path d="M224.988 54.4571C224.334 52.6992 223.398 51.3807 222.179 50.5018C220.931 49.5925 219.445 49.1834 217.721 49.2743C215.937 49.4258 214.451 49.9865 213.262 50.9564C212.013 52.0172 210.988 53.4872 210.185 55.3663C209.323 57.3061 208.848 59.8217 208.759 62.9132C208.729 64.4892 208.803 65.9744 208.982 67.3686C209.19 68.7324 209.517 70.0054 209.963 71.1874C210.765 73.5212 211.969 75.1124 213.574 75.9611C215.12 76.8097 216.546 77.1431 217.854 76.9612C218.478 76.9006 219.058 76.7946 219.593 76.643C220.128 76.4915 220.633 76.3096 221.109 76.0975C221.555 75.8853 221.986 75.5822 222.402 75.1882C222.818 74.7942 223.205 74.2941 223.561 73.6879C224.304 72.5362 224.81 71.0814 225.077 69.3235C225.345 68.5657 225.687 68.202 226.103 68.2324C226.578 68.293 226.742 68.884 226.593 70.0054C226.385 71.6421 225.999 73.0211 225.434 74.1425C224.839 75.3246 223.977 76.3551 222.848 77.234C221.689 78.2342 220.128 78.8252 218.166 79.0071C216.205 79.1889 214.362 78.8101 212.638 77.8705C210.884 76.9916 209.487 75.1124 208.447 72.2331C207.882 70.8389 207.481 69.3538 207.243 67.7777C207.035 66.1714 206.96 64.4892 207.02 62.7313C207.168 59.2155 207.718 56.3817 208.67 54.2298C209.532 52.1081 210.735 50.426 212.281 49.1834C213.737 48.0316 215.476 47.3648 217.498 47.183C219.549 47.0314 221.332 47.5164 222.848 48.6378C224.394 49.7592 225.583 51.411 226.415 53.5933C226.563 54.6238 226.445 55.2299 226.058 55.4118C225.672 55.6239 225.315 55.3057 224.988 54.4571Z" fill="white"/>
<path d="M240.326 58.3214C242.05 58.2608 243.595 58.8064 244.963 59.9581C246.39 61.0795 247.415 62.7162 248.039 64.8681C248.693 66.9897 248.753 69.2932 248.218 71.7785C247.683 74.3244 246.523 76.3702 244.74 77.916C242.927 79.492 240.861 80.1437 238.542 79.8709C236.135 79.5981 234.247 78.7343 232.88 77.2795C231.542 75.9156 230.665 74.0516 230.249 71.6875C229.833 69.4447 230.011 67.1412 230.784 64.7772C231.498 62.4434 232.702 60.731 234.396 59.6398C236.06 58.5184 238.037 58.079 240.326 58.3214ZM240.905 60.0945C238.587 59.9429 236.759 60.3369 235.421 61.2765C233.995 62.2161 233.014 63.6406 232.479 65.55C231.854 67.4898 231.691 69.3841 231.988 71.2329C232.137 72.1725 232.375 73.0211 232.702 73.7788C233.028 74.5366 233.474 75.2185 234.039 75.8247C235.079 77.0067 236.581 77.6887 238.542 77.8705C240.445 78.0524 242.184 77.4917 243.759 76.1884C245.245 74.9154 246.181 73.2484 246.568 71.1874C246.954 69.1265 246.865 67.1867 246.3 65.3682C245.736 63.5497 244.963 62.2919 243.982 61.5948C243.536 61.2614 243.06 60.9583 242.555 60.6855C242.05 60.4127 241.5 60.2157 240.905 60.0945Z" fill="white"/>
<path d="M270.199 48.7287C270.317 55.8816 270.347 61.4735 270.288 65.5046C270.258 69.5356 270.169 71.9906 270.02 72.8696C269.901 73.7485 269.678 74.5517 269.351 75.2791C269.024 76.0065 268.623 76.6733 268.148 77.2795C267.702 77.8857 267.182 78.3858 266.587 78.7798C265.993 79.1435 265.309 79.4314 264.536 79.6436C263.05 80.0679 261.46 80.1134 259.765 79.78C257.982 79.5072 256.54 78.7798 255.441 77.5977C254.876 76.9916 254.4 76.3248 254.014 75.5974C253.627 74.87 253.345 74.0516 253.167 73.1424C252.721 71.3541 252.765 69.278 253.3 66.9139C253.776 64.6105 255.039 62.8526 257.09 61.6402C259.052 60.4885 261.103 60.0945 263.243 60.4582C265.294 60.8522 266.974 61.716 268.281 63.0496V48.6378C268.281 47.577 268.608 47.0314 269.262 47.0011C269.886 46.9708 270.199 47.5467 270.199 48.7287ZM268.371 70.3691C268.519 68.6415 268.192 67.0806 267.39 65.6864C266.557 64.2316 265.19 63.3072 263.288 62.9132C261.356 62.4889 259.632 62.7162 258.116 63.5951C256.57 64.4438 255.574 65.9441 255.128 68.096C254.623 70.3085 254.861 72.324 255.842 74.1425C256.882 76.0217 258.101 77.1431 259.498 77.5068C260.865 77.9008 262.322 77.8857 263.867 77.4613C265.264 77.0976 266.349 76.3096 267.122 75.0973C267.509 74.4911 267.791 73.8091 267.969 73.0514C268.177 72.2634 268.311 71.3693 268.371 70.3691Z" fill="white"/>
<path d="M276.931 70.6874C277.08 71.6875 277.303 72.5816 277.6 73.3697C277.927 74.1274 278.343 74.779 278.848 75.3246C279.324 75.8398 279.933 76.2945 280.676 76.6885C281.419 77.0825 282.296 77.4007 283.307 77.6432C285.358 78.1281 287.558 77.9917 289.906 77.234C290.708 77.0522 291.169 77.2189 291.288 77.7341C291.407 78.31 291.08 78.7798 290.307 79.1435C287.989 79.9618 285.715 80.1891 283.485 79.8254C281.197 79.492 279.309 78.5676 277.823 77.0522C276.307 75.5064 275.46 73.3848 275.281 70.6874C275.163 69.3235 275.163 68.1111 275.281 67.0503C275.43 65.9592 275.653 65.0045 275.95 64.1861C276.277 63.3981 276.649 62.701 277.065 62.0948C277.481 61.4887 277.957 60.9583 278.492 60.5036C279.532 59.6247 280.691 59.0034 281.969 58.6397C282.594 58.4881 283.218 58.3972 283.842 58.3669C284.496 58.3366 285.105 58.3517 285.67 58.4123C286.889 58.5942 287.989 59.0185 288.969 59.6853C289.504 59.9884 289.98 60.3521 290.396 60.7764C290.812 61.1704 291.169 61.6099 291.466 62.0948C292.001 63.095 292.432 64.2771 292.759 65.641C293.027 67.0049 293.071 68.1566 292.893 69.0961C292.715 70.0357 292.284 70.551 291.6 70.6419L276.931 70.6874ZM290.976 68.8234C291.273 66.5805 290.887 64.6711 289.817 63.095C288.628 61.519 287.305 60.6249 285.848 60.4127C284.303 60.1702 282.906 60.2763 281.657 60.731C281.033 60.9734 280.439 61.3371 279.874 61.8221C279.339 62.2767 278.863 62.8677 278.447 63.5951C277.555 65.0196 277.139 66.7472 277.199 68.7779L290.976 68.8234Z" fill="white"/>
<path d="M305.278 48.5149C305.19 56.9725 305.146 61.8246 305.146 63.071C305.853 62.062 307.181 61.2904 309.127 60.7562C311.044 60.2814 313.02 60.3259 315.055 60.8898C317.031 61.4536 318.506 62.5516 319.479 64.1838C319.922 64.9851 320.261 65.7863 320.497 66.5876C320.733 67.3591 320.851 68.1455 320.851 68.9468C320.851 70.579 320.541 72.1073 319.922 73.5317C319.243 75.0155 318.403 76.1432 317.4 76.9148C316.368 77.716 314.687 78.2354 312.357 78.4728C309.997 78.6805 308.11 78.2799 306.694 77.2709C305.957 76.7664 305.352 76.2322 304.88 75.6684C304.408 75.0749 304.04 74.4665 303.774 73.8433C303.538 73.1905 303.347 72.5079 303.199 71.7957C303.081 71.0538 303.022 70.2674 303.022 69.4364C302.993 68.6055 302.993 66.4392 303.022 62.9374C303.081 59.406 303.14 54.5243 303.199 48.2923C303.376 47.4021 303.774 46.9718 304.394 47.0014C304.983 47.0311 305.278 47.5356 305.278 48.5149ZM309.26 76.2026C310.823 76.7071 312.18 76.8109 313.33 76.5142C313.92 76.3658 314.48 76.1877 315.011 75.98C315.542 75.7723 316.043 75.5052 316.515 75.1787C317.459 74.5555 318.167 73.1905 318.639 71.0835C319.111 69.0061 318.875 67.1959 317.931 65.6528C316.928 64.1393 315.66 63.1451 314.126 62.6703C312.593 62.1955 310.882 62.3142 308.995 63.0264C308.08 63.3529 307.328 63.7683 306.738 64.2728C306.178 64.7773 305.78 65.3412 305.544 65.9644C305.337 66.6172 305.175 67.3146 305.057 68.0565C304.969 68.7687 304.954 69.5106 305.013 70.2822C305.101 71.8847 305.47 73.1459 306.119 74.0659C306.443 74.5407 306.856 74.9562 307.358 75.3123C307.889 75.6684 308.523 75.9652 309.26 76.2026Z" fill="white"/>
<path d="M341.998 61.2459C341.437 63.5903 340.759 65.816 339.963 67.923C339.196 70.0003 338.296 71.9589 337.264 73.7988C335.199 77.449 332.397 81.0397 328.858 84.5712C328.121 85.0757 327.59 85.135 327.266 84.7492C326.882 84.3634 326.926 83.8144 327.398 83.1022C329.61 81.3513 331.749 78.7399 333.813 75.2678C331.336 74.1994 329.433 72.404 328.106 69.8816C327.457 68.6055 326.926 67.2108 326.514 65.6973C326.101 64.1838 325.82 62.5368 325.673 60.7562C325.643 59.8956 325.894 59.3763 326.425 59.1982C326.985 59.0499 327.31 59.3466 327.398 60.0885C327.605 63.4419 328.327 66.3056 329.566 68.6797C330.805 70.9648 332.574 72.6266 334.875 73.6653C335.996 72.0331 336.984 70.0893 337.839 67.8339C338.694 65.5786 339.417 63.0116 340.007 60.133C340.331 59.4802 340.759 59.2724 341.29 59.5098C341.791 59.8066 342.027 60.3853 341.998 61.2459Z" fill="white"/>
<path d="M221.528 136.504H233.912C233.912 145.208 231.736 151.896 227.384 156.568C223.032 161.24 216.888 163.576 208.952 163.576C191.48 163.576 182.744 153.304 182.744 132.76V127C182.744 110.808 187.224 100.664 196.184 96.568C199.704 94.904 203.96 94.072 208.952 94.072C216.248 94.072 222.168 96.088 226.712 100.12C231.32 104.088 233.624 109.848 233.624 117.4H221.144C220.44 113.624 219.192 110.776 217.4 108.856C215.608 106.936 212.792 105.976 208.952 105.976C204.472 105.976 201.144 107.384 198.968 110.2C197.432 112.184 196.536 115.576 196.28 120.376C196.152 121.912 196.088 123.992 196.088 126.616V132.568C196.088 139.928 197.112 144.952 199.16 147.64C201.272 150.328 204.536 151.672 208.952 151.672C213.432 151.672 216.504 150.456 218.168 148.024C219.896 145.528 221.016 141.688 221.528 136.504Z" fill="#00AEFF"/>
<path d="M297.121 163H283.201L279.361 151.192H256.417L252.673 163H238.753L260.641 100.408C261.601 98.232 262.657 96.728 263.809 95.896C265.025 95.064 266.497 94.648 268.225 94.648C269.953 94.648 271.329 95.032 272.353 95.8C273.441 96.568 274.401 98.104 275.233 100.408L297.121 163ZM276.289 139.96L268.225 112.888L259.777 139.96H276.289Z" fill="#00AEFF"/>
<path d="M358.243 163H342.787L329.443 137.656H319.843V163H306.499V109.336C306.499 104.216 307.683 100.504 310.051 98.2C312.419 95.832 316.387 94.648 321.955 94.648H333.283C340.067 94.648 345.443 96.728 349.411 100.888C353.443 104.984 355.459 110.2 355.459 116.536C355.459 121.144 354.243 125.144 351.811 128.536C349.443 131.864 346.499 134.168 342.979 135.448L358.243 163ZM332.419 126.52C335.235 126.52 337.539 125.56 339.331 123.64C341.187 121.656 342.115 119.224 342.115 116.344C342.115 113.4 341.219 111.032 339.427 109.24C337.699 107.448 335.363 106.552 332.419 106.552H325.795C321.827 106.552 319.843 108.568 319.843 112.6V126.52H332.419Z" fill="#00AEFF"/>
<path d="M411.456 163H391.104C383.424 163 377.856 161.528 374.4 158.584C371.008 155.576 369.312 150.712 369.312 143.992V94.648H382.656V143.992C382.656 146.68 383.264 148.536 384.48 149.56C385.696 150.584 387.904 151.096 391.104 151.096H411.456V163Z" fill="#00AEFF"/>
<path d="M472.205 125.656V130.84C472.205 142.296 470.029 150.616 465.677 155.8C461.389 160.984 454.477 163.576 444.941 163.576C435.405 163.576 428.493 160.984 424.205 155.8C419.981 150.616 417.869 142.2 417.869 130.552V125.56C417.869 114.936 420.013 107.032 424.301 101.848C428.653 96.664 435.501 94.072 444.845 94.072C454.253 94.072 461.165 96.696 465.581 101.944C469.997 107.192 472.205 115.096 472.205 125.656ZM458.861 130.552V127C458.861 120.856 458.093 115.96 456.557 112.312C454.765 108.088 450.925 105.976 445.037 105.976C439.085 105.976 435.213 108.088 433.421 112.312C431.949 115.768 431.213 120.664 431.213 127V130.552C431.213 138.808 432.365 144.376 434.669 147.256C435.565 148.472 436.877 149.528 438.605 150.424C440.397 151.256 442.509 151.672 444.941 151.672C447.437 151.672 449.549 151.256 451.277 150.424C453.005 149.592 454.349 148.568 455.309 147.352C456.269 146.136 457.005 144.536 457.517 142.552C458.413 139.416 458.861 135.416 458.861 130.552Z" fill="#00AEFF"/>
<path d="M529.954 142.84C529.954 149.304 527.586 154.392 522.85 158.104C518.114 161.752 512.066 163.576 504.706 163.576C498.882 163.576 493.25 161.976 487.81 158.776C485.122 157.112 482.914 154.776 481.186 151.768C479.458 148.696 478.594 145.208 478.594 141.304L490.69 140.728C490.69 144.184 492.162 146.872 495.106 148.792C498.05 150.712 501.314 151.672 504.898 151.672C512.898 151.672 516.898 148.856 516.898 143.224C516.898 138.616 514.178 135.896 508.738 135.064L497.602 133.912C492.034 133.08 487.618 131.096 484.354 127.96C481.09 124.824 479.458 120.312 479.458 114.424C479.458 108.536 481.794 103.672 486.466 99.832C491.138 95.992 497.026 94.072 504.13 94.072C511.298 94.072 517.058 95.896 521.41 99.544C525.762 103.128 527.938 107.768 527.938 113.464L516.034 114.04C514.946 108.472 511.202 105.688 504.802 105.688C500.898 105.688 497.826 106.52 495.586 108.184C493.41 109.848 492.322 111.832 492.322 114.136C492.322 116.376 493.122 118.168 494.722 119.512C496.322 120.792 498.306 121.592 500.674 121.912L511.618 123.064C523.842 124.728 529.954 131.32 529.954 142.84Z" fill="#00AEFF"/>
<path d="M362.024 53.848L352.904 81.368H349L358.12 53.848H362.024ZM363.698 77.72V73.56L371.762 70.008L363.698 66.424V62.264L376.018 68.28V71.672L363.698 77.72Z" fill="white"/>
<path d="M197.112 73.56V77.72L184.792 71.672V68.28L197.112 62.264V66.424L189.048 70.008L197.112 73.56Z" fill="white"/>
</g>
<defs>
<clipPath id="clip0_2_61">
<rect width="553" height="202" fill="white"/>
</clipPath>
</defs>
</svg>
