<svg width="753" height="244" viewBox="0 0 753 244" fill="none" xmlns="http://www.w3.org/2000/svg">
<path d="M198.059 212.402C184.879 224.647 169.075 233.723 151.857 238.935C134.64 244.146 116.465 245.356 98.724 242.472C80.9827 239.587 64.1449 232.684 49.499 222.292C34.8532 211.899 22.7874 198.292 14.2249 182.511C5.66237 166.731 0.830107 149.195 0.097814 131.246C-0.634472 113.298 2.75264 95.411 9.99996 78.9555C17.2473 62.4999 28.1628 47.9114 41.9112 36.3064C55.6596 24.7013 71.8765 16.3871 89.3212 12L98.8613 50.1518C110.439 47.2402 122.527 47.0019 134.207 49.4597C146.143 51.9717 157.324 57.2307 166.862 64.8194L147.529 89.0527C141.757 84.4593 134.989 81.2759 127.763 79.7554C120.694 78.2677 113.377 78.4119 106.369 80.1744L106.371 80.1849C102.367 81.1945 98.4279 82.7461 94.6541 84.8675L79.4899 57.8725C70.4973 62.9277 62.5857 69.7012 56.207 77.8062C49.8282 85.9112 45.1072 95.1891 42.3134 105.11C39.5197 115.031 38.7079 125.401 39.9245 135.627C41.1411 145.854 44.3622 155.737 49.4039 164.712C54.4455 173.687 61.2091 181.579 69.3084 187.936C77.4076 194.293 86.684 198.992 96.6077 201.764C106.532 204.536 116.908 205.326 127.146 204.091C137.383 202.855 147.281 199.617 156.274 194.562L141.109 167.567C144.46 165.683 147.495 163.455 150.195 160.951L150.217 160.975C155.33 156.225 159.34 150.408 161.957 143.934C164.685 137.188 165.827 129.909 165.296 122.658L196.178 120.34C197.055 132.313 195.169 144.333 190.665 155.474C186.343 166.163 179.722 175.769 171.278 183.614L198.059 212.402Z" fill="url(#paint0_linear_40_11)"/>
<path fill-rule="evenodd" clip-rule="evenodd" d="M137.98 161.996C157.779 150.866 164.831 125.825 153.731 106.065C142.631 86.3044 117.582 79.3081 97.7832 90.4379L94.6541 84.8675C71.7728 97.7302 63.6233 126.67 76.4516 149.507C89.2799 172.344 118.228 180.429 141.109 167.567L137.98 161.996ZM137.98 161.996L97.7832 90.4379C77.9844 101.568 70.9327 126.609 82.0328 146.37C93.133 166.13 118.182 173.126 137.98 161.996Z" fill="url(#paint1_linear_40_11)"/>
<path d="M313.789 212.22C310.795 212.886 307.024 213.441 302.476 213.885C298.04 214.328 293.881 214.55 289.999 214.55C277.909 214.55 269.036 212.997 263.38 209.89C257.834 206.673 254.119 201.125 252.233 193.248C250.348 185.259 249.405 172.832 249.405 155.968C249.405 139.214 250.348 126.843 252.233 118.854C254.119 110.866 257.834 105.318 263.38 102.211C269.036 98.9937 277.909 97.3849 289.999 97.3849C293.992 97.3849 298.151 97.6623 302.476 98.2171C306.913 98.6609 310.517 99.2711 313.29 100.048V113.695C306.525 112.696 300.147 112.197 294.158 112.197C285.063 112.197 278.741 113.085 275.192 114.86C271.643 116.635 269.314 120.352 268.205 126.011C267.096 131.669 266.541 141.655 266.541 155.968C266.541 170.28 267.096 180.266 268.205 185.925C269.314 191.583 271.643 195.3 275.192 197.075C278.741 198.851 285.063 199.738 294.158 199.738C301.922 199.738 308.466 199.239 313.789 198.24V212.22Z" fill="url(#paint2_linear_40_11)"/>
<path d="M393.855 213.219L385.204 184.26H344.61L336.126 213.219H318.823L353.761 98.7163H376.553L411.49 213.219H393.855ZM365.24 116.191H364.408L348.769 169.615H380.878L365.24 116.191Z" fill="url(#paint3_linear_40_11)"/>
<path d="M481.826 213.219L466.354 169.115H439.735V213.219H422.599V98.7163H467.352C476.114 98.7163 482.713 100.159 487.15 103.043C491.586 105.928 494.47 109.867 495.801 114.86C497.243 119.742 497.964 126.122 497.964 133.999C497.964 142.099 496.965 148.978 494.969 154.636C493.083 160.184 489.091 164.123 482.991 166.453L499.96 213.219H481.826ZM461.363 154.47C467.241 154.47 471.511 153.804 474.173 152.473C476.946 151.141 478.72 149.089 479.497 146.315C480.384 143.541 480.828 139.436 480.828 133.999C480.828 128.451 480.44 124.346 479.663 121.683C478.887 118.91 477.168 116.857 474.506 115.526C471.844 114.194 467.629 113.528 461.862 113.528H439.735V154.47H461.363Z" fill="url(#paint4_linear_40_11)"/>
<path d="M515.576 213.219V98.7163H532.712V197.908H575.802V213.219H515.576Z" fill="url(#paint5_linear_40_11)"/>
<path d="M625.531 214.55C612.333 214.55 602.905 212.997 597.249 209.89C591.592 206.784 587.988 201.458 586.435 193.913C584.993 186.368 584.272 173.72 584.272 155.968C584.272 138.215 584.993 125.567 586.435 118.022C587.988 110.477 591.592 105.152 597.249 102.045C602.905 98.9382 612.333 97.3849 625.531 97.3849C638.841 97.3849 648.324 98.9382 653.98 102.045C659.637 105.152 663.241 110.477 664.794 118.022C666.347 125.567 667.123 138.215 667.123 155.968C667.123 173.72 666.347 186.368 664.794 193.913C663.241 201.458 659.637 206.784 653.98 209.89C648.324 212.997 638.841 214.55 625.531 214.55ZM625.531 199.738C633.85 199.738 639.506 199.017 642.501 197.575C645.495 196.132 647.436 192.637 648.324 187.09C649.322 181.431 649.821 171.057 649.821 155.968C649.821 140.878 649.322 130.56 648.324 125.012C647.436 119.353 645.495 115.803 642.501 114.361C639.506 112.918 633.85 112.197 625.531 112.197C617.213 112.197 611.556 112.918 608.562 114.361C605.678 115.803 603.737 119.353 602.739 125.012C601.852 130.56 601.408 140.878 601.408 155.968C601.408 171.057 601.852 181.431 602.739 187.09C603.737 192.637 605.678 196.132 608.562 197.575C611.556 199.017 617.213 199.738 625.531 199.738Z" fill="url(#paint6_linear_40_11)"/>
<path d="M718.063 214.55C706.084 214.55 694.383 213.774 682.959 212.22V197.908C694.938 199.128 704.92 199.738 712.905 199.738C718.007 199.738 722 199.461 724.884 198.906C727.878 198.351 730.263 197.408 732.038 196.077C733.59 194.745 734.589 192.97 735.032 190.751C735.587 188.421 735.864 185.259 735.864 181.265C735.864 176.272 735.587 172.777 735.032 170.78C734.589 168.672 733.535 167.174 731.871 166.286C730.208 165.288 727.379 164.511 723.387 163.956L701.093 160.96C695.215 160.184 690.779 158.52 687.784 155.968C684.789 153.416 682.737 150.087 681.628 145.982C680.63 141.877 680.131 136.606 680.131 130.171C680.131 121.406 681.517 114.638 684.29 109.867C687.174 105.096 691.222 101.823 696.435 100.048C701.759 98.2725 708.58 97.3849 716.898 97.3849C722.555 97.3849 728.156 97.6623 733.701 98.2171C739.247 98.6609 744.016 99.3266 748.009 100.214V114.194C740.245 112.863 731.15 112.197 720.725 112.197C715.401 112.197 711.242 112.474 708.247 113.029C705.252 113.584 702.923 114.527 701.26 115.858C699.596 117.19 698.487 118.91 697.932 121.018C697.489 123.015 697.267 125.844 697.267 129.506C697.267 133.833 697.489 136.995 697.932 138.992C698.487 140.989 699.485 142.431 700.927 143.319C702.369 144.096 704.809 144.706 708.247 145.15L730.873 148.145C735.975 148.811 740.079 149.976 743.184 151.64C746.29 153.194 748.674 155.968 750.338 159.962C752.113 164.178 753 170.724 753 179.6C753 189.142 751.669 196.465 749.007 201.569C746.456 206.562 742.685 210.001 737.694 211.887C732.814 213.663 726.27 214.55 718.063 214.55Z" fill="url(#paint7_linear_40_11)"/>
<path d="M215.326 70.7492C211.101 70.7492 207.299 69.772 203.919 67.8176C200.539 65.8632 197.875 63.0293 195.925 59.316C193.975 55.6026 193 51.1401 193 45.9283C193 40.5863 194.04 36.0586 196.12 32.3453C198.265 28.6319 201.059 25.798 204.504 23.8436C208.014 21.8892 211.784 20.9121 215.813 20.9121C218.933 20.9121 221.598 21.4332 223.808 22.4756C226.082 23.5179 228.032 24.8534 229.657 26.4821L225.66 31.3681C224.425 30.2606 223.028 29.3485 221.468 28.6319C219.973 27.9153 218.185 27.557 216.106 27.557C213.311 27.557 210.776 28.3388 208.501 29.9023C206.291 31.4007 204.537 33.5505 203.237 36.3518C201.937 39.0879 201.287 42.2801 201.287 45.9283C201.287 49.5114 201.904 52.671 203.139 55.4072C204.374 58.1433 206.096 60.2932 208.306 61.8567C210.516 63.355 213.083 64.1042 216.008 64.1042C218.153 64.1042 220.168 63.6808 222.053 62.8339C223.938 61.987 225.595 60.912 227.025 59.6091L230.535 64.4951C228.585 66.3844 226.31 67.9153 223.71 69.0879C221.175 70.1954 218.38 70.7492 215.326 70.7492Z" fill="#E3E5FC"/>
<path d="M254.378 70.7492C250.544 70.7492 246.936 69.772 243.557 67.8176C240.242 65.8632 237.545 63.0293 235.465 59.316C233.45 55.6026 232.442 51.1401 232.442 45.9283C232.442 40.5863 233.45 36.0586 235.465 32.3453C237.545 28.6319 240.242 25.798 243.557 23.8436C246.936 21.8892 250.544 20.9121 254.378 20.9121C258.278 20.9121 261.885 21.8892 265.2 23.8436C268.515 25.798 271.179 28.6319 273.194 32.3453C275.274 36.0586 276.314 40.5863 276.314 45.9283C276.314 51.1401 275.274 55.6026 273.194 59.316C271.179 63.0293 268.515 65.8632 265.2 67.8176C261.885 69.772 258.278 70.7492 254.378 70.7492ZM254.378 64.1042C257.108 64.1042 259.48 63.355 261.495 61.8567C263.575 60.2932 265.167 58.1433 266.272 55.4072C267.442 52.671 268.027 49.5114 268.027 45.9283C268.027 42.2801 267.442 39.0879 266.272 36.3518C265.167 33.5505 263.575 31.4007 261.495 29.9023C259.48 28.3388 257.108 27.557 254.378 27.557C251.713 27.557 249.341 28.3388 247.261 29.9023C245.181 31.4007 243.557 33.5505 242.387 36.3518C241.282 39.0879 240.729 42.2801 240.729 45.9283C240.729 49.5114 241.282 52.671 242.387 55.4072C243.557 58.1433 245.181 60.2932 247.261 61.8567C249.341 63.355 251.713 64.1042 254.378 64.1042Z" fill="#E3E5FC"/>
<path d="M302.051 70.7492C296.137 70.7492 291.392 68.5993 287.817 64.2997C284.243 59.9348 282.455 53.8111 282.455 45.9283C282.455 40.7818 283.398 36.3518 285.282 32.6384C287.232 28.8599 289.767 25.9609 292.887 23.9414C296.072 21.9218 299.451 20.9121 303.026 20.9121C305.756 20.9121 308.128 21.4007 310.143 22.3778C312.158 23.355 314.205 24.6906 316.285 26.3844L315.895 18.2736V0H323.987V69.5765H317.357L316.675 64.0065H316.383C314.563 65.8306 312.418 67.4267 309.948 68.7948C307.478 70.0977 304.846 70.7492 302.051 70.7492ZM303.806 64.0065C306.016 64.0065 308.096 63.4853 310.046 62.443C311.995 61.3355 313.945 59.6743 315.895 57.4593V32.6384C313.88 30.8143 311.93 29.544 310.046 28.8274C308.226 28.0456 306.341 27.6547 304.391 27.6547C301.856 27.6547 299.549 28.4365 297.469 30C295.454 31.4984 293.829 33.6156 292.594 36.3518C291.36 39.0228 290.742 42.1824 290.742 45.8306C290.742 51.4984 291.879 55.9609 294.154 59.2182C296.429 62.4104 299.646 64.0065 303.806 64.0065Z" fill="#E3E5FC"/>
<path d="M356.226 70.7492C352.002 70.7492 348.167 69.772 344.722 67.8176C341.278 65.798 338.548 62.9316 336.533 59.2182C334.518 55.5049 333.511 51.0749 333.511 45.9283C333.511 40.7166 334.518 36.2541 336.533 32.5407C338.613 28.8274 341.278 25.9609 344.527 23.9414C347.777 21.9218 351.189 20.9121 354.764 20.9121C358.794 20.9121 362.206 21.8241 365.001 23.6482C367.86 25.4723 370.005 28.0456 371.435 31.3681C372.93 34.6906 373.678 38.6319 373.678 43.1922C373.678 44.0391 373.645 44.886 373.58 45.7329C373.58 46.5147 373.515 47.1987 373.385 47.785H339.36L339.263 42.0195H366.658C366.658 37.1987 365.618 33.5505 363.538 31.0749C361.523 28.5342 358.664 27.2638 354.959 27.2638C352.749 27.2638 350.572 27.9153 348.427 29.2182C346.282 30.5212 344.527 32.5407 343.162 35.2769C341.798 37.9479 341.115 41.4332 341.115 45.7329C341.18 49.8371 341.928 53.2899 343.357 56.0912C344.852 58.8274 346.802 60.8795 349.207 62.2476C351.612 63.6156 354.277 64.2997 357.201 64.2997C359.476 64.2997 361.588 64.0065 363.538 63.4202C365.553 62.7687 367.373 61.8892 368.998 60.7818L371.825 65.8632C369.81 67.2964 367.503 68.4691 364.903 69.3811C362.368 70.2932 359.476 70.7492 356.226 70.7492Z" fill="#E3E5FC"/>
<path d="M420.015 70.7492C417.805 70.7492 415.497 70.228 413.093 69.1857C410.753 68.0782 408.543 66.5798 406.463 64.6906H406.171L405.488 69.5765H399.054V0H407.048V18.9577L406.853 27.557C408.998 25.6678 411.338 24.1042 413.872 22.8664C416.472 21.5635 419.072 20.9121 421.672 20.9121C425.767 20.9121 429.211 21.9218 432.006 23.9414C434.801 25.8958 436.913 28.6971 438.343 32.3453C439.773 35.9283 440.488 40.1629 440.488 45.0489C440.488 50.456 439.513 55.0814 437.563 58.9251C435.678 62.7687 433.176 65.7003 430.056 67.7199C427.001 69.7394 423.654 70.7492 420.015 70.7492ZM418.65 64.0065C421.249 64.0065 423.557 63.2573 425.572 61.759C427.651 60.2606 429.276 58.1107 430.446 55.3094C431.616 52.443 432.201 49.0554 432.201 45.1466C432.201 41.6287 431.779 38.5668 430.934 35.9609C430.089 33.355 428.756 31.3355 426.936 29.9023C425.117 28.4039 422.712 27.6547 419.722 27.6547C417.707 27.6547 415.66 28.2085 413.58 29.316C411.5 30.4235 409.323 32.0195 407.048 34.1042V59.0228C409.128 60.8469 411.175 62.1498 413.19 62.9316C415.27 63.6482 417.09 64.0065 418.65 64.0065Z" fill="#E3E5FC"/>
<path d="M450.415 90C449.375 90 448.368 89.9023 447.393 89.7068C446.483 89.5114 445.638 89.2834 444.858 89.0228L446.613 82.7687C447.198 82.9642 447.783 83.0945 448.368 83.1596C448.953 83.2899 449.505 83.355 450.025 83.355C452.69 83.355 454.9 82.3778 456.655 80.4235C458.41 78.5342 459.775 76.1238 460.749 73.1922L461.822 69.6743L442.811 22.0847H451.098L460.749 48.3713C461.464 50.3909 462.212 52.5733 462.992 54.9186C463.837 57.2638 464.617 59.544 465.332 61.759H465.722C466.437 59.6091 467.119 57.3616 467.769 55.0163C468.419 52.671 469.069 50.456 469.719 48.3713L478.201 22.0847H486L468.159 73.4853C467.054 76.6124 465.722 79.4137 464.162 81.8892C462.667 84.3648 460.782 86.3192 458.507 87.7524C456.297 89.2508 453.6 90 450.415 90Z" fill="#E3E5FC"/>
<defs>
<linearGradient id="paint0_linear_40_11" x1="-110.246" y1="268.857" x2="0.837783" y2="-206.253" gradientUnits="userSpaceOnUse">
<stop stop-color="#3597FF"/>
<stop offset="0.766" stop-color="#8D30FF"/>
</linearGradient>
<linearGradient id="paint1_linear_40_11" x1="-110.246" y1="268.857" x2="0.837783" y2="-206.253" gradientUnits="userSpaceOnUse">
<stop stop-color="#3597FF"/>
<stop offset="0.766" stop-color="#8D30FF"/>
</linearGradient>
<linearGradient id="paint2_linear_40_11" x1="-110.246" y1="268.857" x2="0.837783" y2="-206.253" gradientUnits="userSpaceOnUse">
<stop stop-color="#3597FF"/>
<stop offset="0.766" stop-color="#8D30FF"/>
</linearGradient>
<linearGradient id="paint3_linear_40_11" x1="-110.246" y1="268.857" x2="0.837783" y2="-206.253" gradientUnits="userSpaceOnUse">
<stop stop-color="#3597FF"/>
<stop offset="0.766" stop-color="#8D30FF"/>
</linearGradient>
<linearGradient id="paint4_linear_40_11" x1="-110.246" y1="268.857" x2="0.837783" y2="-206.253" gradientUnits="userSpaceOnUse">
<stop stop-color="#3597FF"/>
<stop offset="0.766" stop-color="#8D30FF"/>
</linearGradient>
<linearGradient id="paint5_linear_40_11" x1="-110.246" y1="268.857" x2="0.837783" y2="-206.253" gradientUnits="userSpaceOnUse">
<stop stop-color="#3597FF"/>
<stop offset="0.766" stop-color="#8D30FF"/>
</linearGradient>
<linearGradient id="paint6_linear_40_11" x1="-110.246" y1="268.857" x2="0.837783" y2="-206.253" gradientUnits="userSpaceOnUse">
<stop stop-color="#3597FF"/>
<stop offset="0.766" stop-color="#8D30FF"/>
</linearGradient>
<linearGradient id="paint7_linear_40_11" x1="-110.246" y1="268.857" x2="0.837783" y2="-206.253" gradientUnits="userSpaceOnUse">
<stop stop-color="#3597FF"/>
<stop offset="0.766" stop-color="#8D30FF"/>
</linearGradient>
</defs>
</svg>
